<?xml version="1.0" encoding="UTF-8" standalone="no"?><svg xmlns="http://www.w3.org/2000/svg" xmlns:xlink="http://www.w3.org/1999/xlink" id="Layer_1" style="" version="1.1" viewBox="0 0 401 122.8" x="0px" xml:space="preserve" y="0px">
<style type="text/css">
	.st0{fill:#290088;}
	.st1{fill:#ED1650;}
</style>
<path class="st0" d="M228.4,65.2h12.2V31.4l21.2-1.3v-8.8h-54.7v8.8l21.2,1.3V65.2z M141,65.2l5-10.1h-29.5V21.3h-12.5v43.8H141z   M187.8,48.2h-16.2l8.2-17.5L187.8,48.2z M297.2,48.2H281l8.2-17.5L297.2,48.2z M352.5,54.5c0.5,1.6,2.4,2.7,4.2,2.7h12.5l9.3-25.8  l8.8,34h11.7l-9.8-38.8c-0.8-4-3.2-5-6.6-5h-12.2l-8.8,25.8l-6.9-21.8c-1.1-2.7-2.7-4-5.3-4h-13.8L324,65.4h12l8.8-34L352.5,54.5z   M305.4,65.2h13.3L298,24.3c-1.1-2.1-2.1-2.9-4.8-2.9h-11.7l-22,43.8h13.3l4-8h24.4L305.4,65.2z M195.8,65.2H209l-20.7-40.9  c-1.1-2.1-2.1-2.9-4.8-2.9h-11.4l-22,43.8h13.3l4-8h24.4L195.8,65.2z"/>
<path class="st0" d="M117.7,94.6h-2.1L102,122l-0.3,0.3h3.7l3.7-7.4h16.5l3.7,7.4l0,0h3.7l-13-26.3  C119.5,94.9,118.7,94.6,117.7,94.6z M124,111.6h-13.3l6.6-13.5L124,111.6z"/>
<rect class="st0" height="27.6" width="3.5" x="152.5" y="94.6"/>
<path class="st0" d="M202.9,103.4c0-5.6-4.2-9-10.9-9H178V122h3.5v-9.8c1.9,0.8,5,1.6,8,1.6c1.3,0,2.7,0,4-0.3l5.6,8.8l0,0h4.2  l-6.1-9.8C200.8,110.8,202.9,107.7,202.9,103.4z M181.4,97.8h10.4c6.9,0,7.7,4,7.7,5.6c0,4.2-3.7,6.6-10.4,6.6  c-2.7,0-5.6-0.5-7.7-1.6V97.8z"/>
<polygon class="st0" points="226,94.6 222.6,94.6 222.6,122.3 242.5,122.3 242.5,119.1 226,119.1 "/>
<rect class="st0" height="27.6" width="3.5" x="261.6" y="94.6"/>
<path class="st0" d="M311.6,117.2l-20.5-22c-0.3-0.3-0.5-0.5-1.1-0.5h-2.7v27.6h3.5V99.4l20.5,22c0.3,0.5,0.8,0.5,1.3,0.5h2.4V94.6  h-3.5V117.2z"/>
<polygon class="st0" points="340.2,109.5 356.2,109.5 356.2,106.3 340.2,106.3 340.2,97.8 358,97.8 358,94.6 336.8,94.6   336.8,122.3 358.3,122.3 358.3,119.1 340.2,119.1 "/>
<path class="st0" d="M389.6,106.9l-2.1-0.3c-4.8-0.8-6.6-2.1-6.6-4.5c0-2.7,3.2-4.5,8.2-4.5c4.5,0,7.4,1.1,8.8,1.6h0.3l1.1-3.2v-0.3  h-0.3c-1.6-0.5-5-1.6-9.6-1.6c-7.2,0-12,3.2-12,8c0,4,2.9,6.4,9.3,7.4l2.1,0.3c5.3,1.1,7.7,2.4,7.7,4.8c0,2.9-2.9,4.8-8.2,4.8  c-5.6,0-9.6-1.6-10.6-2.4l-0.3-0.3l-1.1,3.2l0,0c1.3,0.8,5.6,2.7,11.4,2.7c7.7,0,12.2-3.2,12.2-8.2  C400,110.6,396.8,107.9,389.6,106.9z"/>
<path class="st1" d="M59.5,28.5L23.9,15.8c-3.7-1.3-5.8-3.5-5.8-7.2V1.7c0-1.9,1.3-1.1,2.9-0.5c12,4.2,49.7,17.8,52.9,18.9  c0.5,0.3,0.8,0.3,1.1,0.5c1.1,0.8,0,2.1-4,3.5C70.4,24.5,65.9,26.1,59.5,28.5 M59.5,50.5c6.1-2.1,10.6-4,11.4-4.2  c4.5-1.6,5.3-3.2,3.2-4h0.3c-0.3,0-0.3-0.3-0.5-0.3c-0.5-0.3-3.5-1.3-7.7-2.9c-4.8,1.9-11.7,4.2-18.6,6.6L59.5,50.5z M0,47.6  c0,1.6,0.8,1.9,2.4,1.3c0.8-0.3,2.1-0.8,3.7-1.3c0.5-0.3,0.8-0.3,1.3-0.5l0,0c2.7-1.1,6.1-2.1,9.8-3.5c-6.1-2.1-12-4.2-15.1-5.6  c-1.3-0.3-2.1,0-2.1,1.6V46V47.6z M5.6,30.9L29,39.4c6.1-2.1,12.5-4.5,18.6-6.6c-17.3-6.4-38-13.8-44.6-16.2C1.3,15.8,0,15.2,0,16.8  v6.6C0,27.4,2.1,29.6,5.6,30.9"/>
<path class="st0" d="M73.6,58.8L17.8,79V65.4c0,0,50.2-18.3,53.1-19.1c4.5-1.6,5.3-3.2,3.2-4c2.1,0.8,1.9,1.1,1.9,6.9  C76.2,55.6,76.2,57.7,73.6,58.8 M30.8,109.8c0-2.9,0.3-5.3-2.1-4.2l-10.6,4v13.3l10.1-3.7c2.7-1.1,2.9-2.9,2.9-5.6v-3.7H30.8z   M47.5,81.9c0-2.9,0.3-5.3-2.1-4.2l-27.6,9.8v13.3l26.8-9.6c2.7-1.1,2.9-2.9,2.9-5.6V81.9z M74.4,20.3c2.1,0.8,1.3,2.4-3.2,4  c-2.4,0.8-47.3,17-63.7,23.1l0,0c-0.5,0.3-0.8,0.3-1.3,0.5c-1.6,0.5-2.9,1.1-3.7,1.3c-1.6,0.3-2.4,0-2.4-1.6c0,1.1,0,3.2,1.9,3.7  l14.6,5.3c0,0,1.1,0.3,2.1,0c1.3-0.5,55-19.9,55-19.9c2.7-1.1,2.7-3.2,2.7-9.6C76.2,21.3,76.2,21.1,74.4,20.3"/>
</svg>